# xmcd
#
# Track frame offsets: 
#        150
#        16715
#        36562
#        54542
#        74781
#        100351
#        120848
#        142172
#        156281
#        177658
#        197760
#        217239
#        241286
#        268588
#        288076
#        303145
#
# Disc length: 4228 seconds
#
# Revision: 0
# Processed by: cddbd v1.5.2PL0 Copyright (c) Steve Scherf et al.
# Submitted via: ExactAudioCopy v1.3
#
DISCID=f4108210
DTITLE=Jack De Keyzer - The Best of Jack De Keyzer Vol. I
DYEAR=2017
DGENRE=Elecrtic Blues
TTITLE0=Music Is the Food of Love
TTITLE1=Soul Lover
TTITLE2=Ride with Me
TTITLE3=Blues Thing
TTITLE4=Engine Trouble
TTITLE5=High on Your Love
TTITLE6=That's the Only Time
TTITLE7=Gambler's Blues
TTITLE8=Cotton Candy
TTITLE9=Who Let the Cat Out of the Bag!
TTITLE10=Nothing in the World
TTITLE11=My Love Has Gone
TTITLE12=The Way That I Love You
TTITLE13=Hard Working Man
TTITLE14=Rock'n Roll Girl
TTITLE15=Blue Train
EXTD=
EXTT0=
EXTT1=
EXTT2=
EXTT3=
EXTT4=
EXTT5=
EXTT6=
EXTT7=
EXTT8=
EXTT9=
EXTT10=
EXTT11=
EXTT12=
EXTT13=
EXTT14=
EXTT15=
PLAYORDER=
